<svg xmlns="http://www.w3.org/2000/svg" viewBox="0 0 86.9 54.06"><defs><style>.cls-1{fill:#333;}</style></defs><g id="Layer_2" data-name="Layer 2"><g id="Layer_1-2" data-name="Layer 1"><path class="cls-1" d="M10.44,6.33V21.09H33V6.33A6.91,6.91,0,0,1,34.4,1.58,4.81,4.81,0,0,1,38.14,0,5,5,0,0,1,42,1.56a6.82,6.82,0,0,1,1.46,4.77v40.6a6.74,6.74,0,0,1-1.48,4.78,4.94,4.94,0,0,1-3.8,1.59,4.78,4.78,0,0,1-3.76-1.6A7.09,7.09,0,0,1,33,46.93V29.6H10.44V46.93A6.74,6.74,0,0,1,9,51.71,4.94,4.94,0,0,1,5.17,53.3a4.77,4.77,0,0,1-3.76-1.6A7,7,0,0,1,0,46.93V6.33A7,7,0,0,1,1.39,1.58,4.77,4.77,0,0,1,5.17,0,5,5,0,0,1,9,1.56,6.82,6.82,0,0,1,10.44,6.33Z"/><path class="cls-1" d="M86.9,37.72a15.13,15.13,0,0,1-2.41,8.4,15.94,15.94,0,0,1-7,5.83,26.41,26.41,0,0,1-11,2.11q-7.62,0-12.58-2.88a16.75,16.75,0,0,1-5.72-5.54A12.59,12.59,0,0,1,46,38.91a4.54,4.54,0,0,1,4.67-4.6,4,4,0,0,1,2.8,1,8.33,8.33,0,0,1,1.95,3.13A20.09,20.09,0,0,0,57.5,42.6a8.68,8.68,0,0,0,3.21,2.73,12,12,0,0,0,5.45,1.07,12.3,12.3,0,0,0,7.54-2.16,6.49,6.49,0,0,0,2.9-5.4A5.73,5.73,0,0,0,75,34.67a10.11,10.11,0,0,0-4-2.44q-2.49-.84-6.63-1.79a48.77,48.77,0,0,1-9.3-3,15,15,0,0,1-5.94-4.75,12.27,12.27,0,0,1-2.2-7.47,12.8,12.8,0,0,1,2.32-7.56A14.66,14.66,0,0,1,56,2.54,27.54,27.54,0,0,1,66.3.77a25.71,25.71,0,0,1,8.21,1.17,17.51,17.51,0,0,1,5.75,3.13,13.22,13.22,0,0,1,3.34,4.1,9.46,9.46,0,0,1,1.05,4.18,5,5,0,0,1-1.32,3.36,4.16,4.16,0,0,1-3.28,1.49,3.82,3.82,0,0,1-2.73-.89,12.29,12.29,0,0,1-2-2.94,13.41,13.41,0,0,0-3.37-4.55q-2-1.63-6.33-1.64A11,11,0,0,0,59.08,10a5.15,5.15,0,0,0-2.48,4.27,4.34,4.34,0,0,0,.84,2.67,7.15,7.15,0,0,0,2.32,1.94,15.37,15.37,0,0,0,3,1.26c1,.31,2.67.75,5,1.34a78.73,78.73,0,0,1,7.9,2.25,23.91,23.91,0,0,1,6,3,12.23,12.23,0,0,1,3.86,4.44A14.22,14.22,0,0,1,86.9,37.72Z"/></g></g></svg>