<svg xmlns="http://www.w3.org/2000/svg" xmlns:xlink="http://www.w3.org/1999/xlink" viewBox="0 0 332.08 376.35"><defs><style>.cls-1{isolation:isolate;}.cls-2{fill:#58595b;}.cls-3{fill:#1b75bc;}.cls-10,.cls-11,.cls-12,.cls-4,.cls-5,.cls-6,.cls-7,.cls-8,.cls-9{opacity:0.5;mix-blend-mode:multiply;}.cls-4{fill:url(#linear-gradient);}.cls-5{fill:url(#linear-gradient-2);}.cls-6{fill:url(#linear-gradient-3);}.cls-7{fill:url(#linear-gradient-4);}.cls-8{fill:url(#linear-gradient-5);}.cls-9{fill:url(#linear-gradient-6);}.cls-10{fill:url(#linear-gradient-7);}.cls-11{fill:url(#linear-gradient-8);}.cls-12{fill:url(#linear-gradient-9);}</style><linearGradient id="linear-gradient" x1="355.85" y1="367.41" x2="258.04" y2="312.36" gradientUnits="userSpaceOnUse"><stop offset="0"/><stop offset="1" stop-color="#fff"/></linearGradient><linearGradient id="linear-gradient-2" x1="284.01" y1="341.51" x2="190.71" y2="396.51" xlink:href="#linear-gradient"/><linearGradient id="linear-gradient-3" x1="223.2" y1="498.38" x2="223.2" y2="386.82" gradientUnits="userSpaceOnUse"><stop offset="0" stop-color="#fff"/><stop offset="1"/></linearGradient><linearGradient id="linear-gradient-4" x1="233.43" y1="468.66" x2="328.78" y2="524.2" xlink:href="#linear-gradient"/><linearGradient id="linear-gradient-5" x1="303.52" y1="504.29" x2="407.13" y2="442.91" xlink:href="#linear-gradient"/><linearGradient id="linear-gradient-6" x1="371.25" y1="450.82" x2="371.25" y2="328.54" xlink:href="#linear-gradient"/><linearGradient id="linear-gradient-7" x1="182.07" y1="188.18" x2="198.35" y2="188.18" xlink:href="#linear-gradient-3"/><linearGradient id="linear-gradient-8" x1="281.39" y1="420.82" x2="313.26" y2="420.82" xlink:href="#linear-gradient-3"/><linearGradient id="linear-gradient-9" x1="248.49" y1="420.28" x2="345.96" y2="420.28" xlink:href="#linear-gradient"/></defs><g class="cls-1"><g id="Layer_1" data-name="Layer 1"><path class="cls-2" d="M253.2,306.14l-52.31,27.68V312.15l101.9-59.43a10.83,10.83,0,0,0-.08-18.78h0a11,11,0,0,0-10.88,0l-106.67,61a14.85,14.85,0,0,0-7.49,12.88v62.86l80.62-43,18,10.28,21,12.05,62,35.35V361.19L263.3,306.31A10.5,10.5,0,0,0,253.2,306.14Z" transform="translate(-131.19 -232.5)"/><path class="cls-3" d="M276.28,337.93,182.79,393a10.37,10.37,0,0,0-5.12,8.92v58.53l-24.8-10.77V332a10.84,10.84,0,0,0-16.24-9.35h0a10.76,10.76,0,0,0-5.44,9.35V454.43a14.85,14.85,0,0,0,7.78,13l57.68,31.28V408.07l38.81-22.74L297.27,350Z" transform="translate(-131.19 -232.5)"/><path class="cls-3" d="M380.19,443.93V336.65a10.37,10.37,0,0,0-5.35-9.06l-52.65-29.2L344,282.48,447.07,341.3A10.81,10.81,0,0,0,463.26,332h0a10.73,10.73,0,0,0-5.42-9.32L350.68,261.37a15,15,0,0,0-15.21.19l-56.23,34,80,45.27V456Z" transform="translate(-131.19 -232.5)"/><path class="cls-3" d="M313.26,430.11V411.84l-14.13-8.09-1.11-.64a1.46,1.46,0,0,0-1.43,0l-10.75,6.17-2.71,1.56a3.48,3.48,0,0,0-1.74,3V428.1a3.48,3.48,0,0,0,1.74,3l12.44,7.15a3.48,3.48,0,0,0,3.45,0Z" transform="translate(-131.19 -232.5)"/><polygon class="cls-3" points="198.49 169.6 182.07 179.34 182.07 197.61 198.49 206.76 198.49 169.6"/><path class="cls-3" d="M341.25,535.21l52.31-27.68V529.2l-101.9,59.43a10.83,10.83,0,0,0,.08,18.78h0a11,11,0,0,0,10.89,0l106.66-61a14.84,14.84,0,0,0,7.49-12.87V470.67l-80.62,43-18-10.28-21-12.05-62-35.34v24.13L331.15,535A10.48,10.48,0,0,0,341.25,535.21Z" transform="translate(-131.19 -232.5)"/><path class="cls-2" d="M318.17,503.42l93.5-55.1a10.38,10.38,0,0,0,5.11-8.92V380.87l24.8,10.77V509.36a10.85,10.85,0,0,0,16.24,9.35h0a10.77,10.77,0,0,0,5.44-9.35V386.93a14.83,14.83,0,0,0-7.78-13L397.8,342.6v90.68L359,456l-61.81,35.34Z" transform="translate(-131.19 -232.5)"/><path class="cls-2" d="M214.26,397.42V504.7a10.37,10.37,0,0,0,5.35,9.06L272.26,543l-21.81,15.91L147.38,500.06a10.81,10.81,0,0,0-16.19,9.33h0a10.76,10.76,0,0,0,5.42,9.32L243.77,580a15,15,0,0,0,15.21-.19l56.23-34-80-45.26V385.33Z" transform="translate(-131.19 -232.5)"/><path class="cls-4" d="M253.2,306.14l-52.31,27.68V312.15l101.9-59.43a10.83,10.83,0,0,0-.08-18.78h0a11,11,0,0,0-10.88,0l-106.67,61a14.85,14.85,0,0,0-7.49,12.88v62.86l80.62-43,18,10.28,21,12.05,62,35.35V361.19L263.3,306.31A10.5,10.5,0,0,0,253.2,306.14Z" transform="translate(-131.19 -232.5)"/><path class="cls-5" d="M276.28,337.93,182.79,393a10.37,10.37,0,0,0-5.12,8.92v58.53l-24.8-10.77V332a10.84,10.84,0,0,0-16.24-9.35h0a10.76,10.76,0,0,0-5.44,9.35V454.43a14.85,14.85,0,0,0,7.78,13l57.68,31.28V408.07l38.81-22.74L297.27,350Z" transform="translate(-131.19 -232.5)"/><path class="cls-6" d="M214.26,397.42V504.7a10.37,10.37,0,0,0,5.35,9.06L272.26,543l-21.81,15.91L147.38,500.06a10.81,10.81,0,0,0-16.19,9.33h0a10.76,10.76,0,0,0,5.42,9.32L243.77,580a15,15,0,0,0,15.21-.19l56.23-34-80-45.26V385.33Z" transform="translate(-131.19 -232.5)"/><path class="cls-7" d="M341.25,535.21l52.31-27.68V529.2l-101.9,59.43a10.83,10.83,0,0,0,.08,18.78h0a11,11,0,0,0,10.89,0l106.66-61a14.84,14.84,0,0,0,7.49-12.87V470.67l-80.62,43-18-10.28-21-12.05-62-35.34v24.13L331.15,535A10.48,10.48,0,0,0,341.25,535.21Z" transform="translate(-131.19 -232.5)"/><path class="cls-8" d="M318.17,503.42l93.5-55.1a10.38,10.38,0,0,0,5.11-8.92V380.87l24.8,10.77V509.36a10.85,10.85,0,0,0,16.24,9.35h0a10.77,10.77,0,0,0,5.44-9.35V386.93a14.83,14.83,0,0,0-7.78-13L397.8,342.6v90.68L359,456l-61.81,35.34Z" transform="translate(-131.19 -232.5)"/><path class="cls-9" d="M380.19,443.93V336.65a10.37,10.37,0,0,0-5.35-9.06l-52.65-29.2L344,282.48,447.07,341.3A10.81,10.81,0,0,0,463.26,332h0a10.73,10.73,0,0,0-5.42-9.32L350.68,261.37a15,15,0,0,0-15.21.19l-56.23,34,80,45.27V456Z" transform="translate(-131.19 -232.5)"/><polygon class="cls-10" points="198.49 169.6 182.07 179.34 182.07 197.61 198.49 206.76 198.49 169.6"/><path class="cls-11" d="M313.26,430.11V411.84l-14.13-8.09-1.11-.64a1.46,1.46,0,0,0-1.43,0l-10.75,6.17-2.71,1.56a3.48,3.48,0,0,0-1.74,3V428.1a3.48,3.48,0,0,0,1.74,3l12.44,7.15a3.48,3.48,0,0,0,3.45,0Z" transform="translate(-131.19 -232.5)"/><path class="cls-3" d="M341.79,389.54,301.5,366.38a8.41,8.41,0,0,0-8.34,0l-40.49,23.17a8.3,8.3,0,0,0-4.18,7.19v47.1a8.29,8.29,0,0,0,4.17,7.19L293,474.17a8.37,8.37,0,0,0,8.33,0L341.78,451a8.3,8.3,0,0,0,4.18-7.2v-47.1A8.28,8.28,0,0,0,341.79,389.54Zm-16.3,52.11-24.18,13.84a8.41,8.41,0,0,1-8.34,0l-24-13.81a8.28,8.28,0,0,1-4.17-7.18V406.1a8.28,8.28,0,0,1,4.18-7.19l24.18-13.84a8.36,8.36,0,0,1,8.34,0l24,13.8a8.28,8.28,0,0,1,4.16,7.19v28.39A8.28,8.28,0,0,1,325.49,441.65Z" transform="translate(-131.19 -232.5)"/><path class="cls-12" d="M341.79,389.54,301.5,366.38a8.41,8.41,0,0,0-8.34,0l-40.49,23.17a8.3,8.3,0,0,0-4.18,7.19v47.1a8.29,8.29,0,0,0,4.17,7.19L293,474.17a8.37,8.37,0,0,0,8.33,0L341.78,451a8.3,8.3,0,0,0,4.18-7.2v-47.1A8.28,8.28,0,0,0,341.79,389.54Zm-16.3,52.11-24.18,13.84a8.41,8.41,0,0,1-8.34,0l-24-13.81a8.28,8.28,0,0,1-4.17-7.18V406.1a8.28,8.28,0,0,1,4.18-7.19l24.18-13.84a8.36,8.36,0,0,1,8.34,0l24,13.8a8.28,8.28,0,0,1,4.16,7.19v28.39A8.28,8.28,0,0,1,325.49,441.65Z" transform="translate(-131.19 -232.5)"/></g></g></svg>