<svg xmlns="http://www.w3.org/2000/svg" viewBox="0 0 132.47 78.97"><defs><style>.cls-1{isolation:isolate;}.cls-2{fill:#0dbae4;}.cls-2,.cls-5,.cls-6{stroke:#0a2240;stroke-linecap:round;stroke-linejoin:round;stroke-width:3px;}.cls-3{mix-blend-mode:multiply;}.cls-4{fill:#bbc7df;}.cls-5{fill:#e83561;}.cls-6{fill:#fff;}</style></defs><g class="cls-1"><g id="Layer_1" data-name="Layer 1"><path class="cls-2" d="M577,534v-7.21a4.58,4.58,0,0,0-4.58-4.58H554.32V501.53h28.94a14.39,14.39,0,0,1,14.38,14.4v15.83l6,5a3.54,3.54,0,0,1,0,5.4l-6,5.06v15.84a14.38,14.38,0,0,1-14.38,14.38H554.32V556.84h18.09a4.58,4.58,0,0,0,4.58-4.57v-6.84" transform="translate(-473.91 -500.03)"/><g class="cls-3"><polygon class="cls-4" points="109.29 1.5 96.44 22.15 80.41 22.15 80.41 17.51 90.37 1.5 109.29 1.5"/></g><path class="cls-5" d="M503.3,545.43v6.83a4.58,4.58,0,0,0,4.58,4.58H526v20.65H497a14.39,14.39,0,0,1-14.39-14.4V547.26l-6-5a3.52,3.52,0,0,1,0-5.4l6-5.06V515.91A14.38,14.38,0,0,1,497,501.53H526v20.65H507.88a4.58,4.58,0,0,0-4.58,4.57V534" transform="translate(-473.91 -500.03)"/><g class="cls-3"><polygon class="cls-4" points="23.18 77.46 36.02 56.81 52.06 56.81 52.06 61.45 42.09 77.46 23.18 77.46"/></g><polygon class="cls-6" points="52.06 77.47 33.14 77.47 80.41 1.51 88.41 1.51 99.33 1.51 52.06 77.47"/></g></g></svg>