<svg xmlns="http://www.w3.org/2000/svg" viewBox="0 0 256 303.26"><defs><style>.cls-1{opacity:0.3;}.cls-2{fill:#003;}</style></defs><g id="Layer_2" data-name="Layer 2"><g id="Layer_1-2" data-name="Layer 1"><g class="cls-1"><path class="cls-2" d="M13.1,287.31c-5.2,0-6.71-3-6.71-7.57a41,41,0,0,1,.42-5c1.14-7.85,3.92-12.35,10.64-12.35,4.54,0,6.76,2,6.76,5.73v1.8h4.51c.05,0,.05-1.66.05-2,0-5.39-3.27-10.5-11.31-10.5C6.53,257.36,2,263.29.38,274.93A29.48,29.48,0,0,0,0,279.51c0,6.86,2.7,13.1,12.35,13.1,7.33,0,11.69-3.58,14.24-8l-4.31-2.9c-2.79,4.41-5.82,5.58-9.18,5.58Zm29.57-21.67c-8.75,0-12.53,4.49-13.81,13.43a24.2,24.2,0,0,0-.24,3.12c0,5.77,2.7,10.37,10.17,10.37,8.76,0,12.59-4.69,13.86-13.49a24.19,24.19,0,0,0,.24-3.21c0-5.87-2.79-10.22-10.22-10.22Zm3.65,13.43c-1,6.49-3,8.47-6.82,8.47-3.07,0-4.58-1.27-4.58-5.11a23.4,23.4,0,0,1,.28-3.36c.95-6.43,2.84-8.42,6.72-8.42,3.12,0,4.68,1.28,4.68,5.16a22.89,22.89,0,0,1-.28,3.26ZM74.9,257.83l-1.47,8.68c-.09.76,0,.51.24,1.22A10.44,10.44,0,0,0,68.18,266c-7.85,0-12.25,3.55-13.67,13.49a19.23,19.23,0,0,0-.24,3.17c0,7.24,4.26,9.94,10,9.94,2.41,0,4.77,0,6.62-1.51l.47,2.94h4.54l5.3-36.2Zm-4.5,28.34a10.86,10.86,0,0,1-5.48,1.56c-3.45,0-4.4-1.8-4.4-4.68a28.47,28.47,0,0,1,.33-3.74c1.09-7.52,3.5-8.85,6.63-8.85a10,10,0,0,1,5.06,1.14L70.4,286.17ZM95,265.64c-8.66,0-12.73,4.11-14.1,13.43a25.2,25.2,0,0,0-.24,3.27c0,6.38,3.26,10.22,10.45,10.22,5.59,0,9.75-2.32,12-6.58L98.32,284a7.13,7.13,0,0,1-6.49,3.5c-3.5,0-4.91-.94-4.91-4.07a4.52,4.52,0,0,1,.14-1.51h17.07c.24-2.41.52-4.12.52-5.53,0-4.73-1.79-10.79-9.64-10.79Zm3.26,11.5H87.86c1-2.42,2.79-6.15,6.39-6.15,2.79,0,4.16,1.63,4.16,4.42a7,7,0,0,1-.14,1.73Zm24.59-12.07.57-4.83H110.08l-.56,4.83H113l-3.78,24.14h-3.51l-.56,4.82h13.34l.57-4.82h-3.5l3.78-24.14ZM150,272.31l1.7-4.83h-4.58l-3.31.69a13,13,0,0,0-6.72-2.07c-6.77,0-12.54,3.27-12.54,10.7a7.89,7.89,0,0,0,1.66,4.9,4.39,4.39,0,0,0-2.65,3.73,3.54,3.54,0,0,0,.85,2.23,9.07,9.07,0,0,0-4.59,7.85c0,6.38,6.67,7.75,11.78,7.75,6.44,0,14.1-1.47,14.1-9.66,0-2.79-1.75-5-6.81-5.91L129.73,286c-1-.19-1.28-.52-1.28-1a1,1,0,0,1,1.14-1.09l.61.09a18.41,18.41,0,0,0,4.12.43c6.58,0,12.44-2.84,12.44-10.22a6.71,6.71,0,0,0-.66-2.88,10.41,10.41,0,0,0,2.27,1Zm-13,19.58c1.8.33,2.41,1,2.41,2.18,0,3.83-4.11,4.31-7.09,4.31-4.54,0-6.25-1.09-6.25-3.51,0-2.13.62-3.12,2-4.63l8.89,1.65ZM135,279.5c-2.74,0-4.26-1-4.26-3.36,0-3.5,2-5.53,5.59-5.53,2.83,0,4.21,1.18,4.21,3.49,0,3.51-2,5.4-5.54,5.4Zm31.76-13.86c-2.65,0-5,1.3-7.95,3.61l-.43-1.77h-5.2L149.56,294h6.29l2.74-20.13c1.85-1.14,4.12-2.79,6.06-2.79,2.36,0,3.22,1.15,3.22,3.32a23.86,23.86,0,0,1-.15,2.63l-2.31,17h6.29L174,276.92a28.4,28.4,0,0,0,.19-2.87c0-4.5-2.12-8.41-7.42-8.41Zm19.38,21.74.05-.65L189,267.48H178.49l-.66,4.83h4.59c-.38,0-.62.42-.66.8l-1.9,12.82a23.29,23.29,0,0,0-.14,2.42c0,3.31,1.8,5.68,5.49,5.68h3.22l.71-4.82h-2c-.71,0-.94-1.26-.94-1.83Zm4.06-29.55h-6.15c-.37,0-.37-1.4-.42-.92l-.86,6.8c0,.43,0,1.36.34,1.36h6.15c.38,0,.38-1.66.42-2.08l.86-5.25c.05-.48.05.09-.34.09Zm12.84,29.71c-1.56,0-2.32-.66-2.32-2.08l0-.09,2-13.06H210l2.18-4.83h-8.71l1.47-10.62L198.28,259l-1.19,8.5h-3.83l-.66,4.83h4.45c-.43,2.41-.85.85-.9,1.32l-1.7,11.45a6.56,6.56,0,0,0-.1,1.37c0,4.5,3.31,6.18,7.29,6.18a13.57,13.57,0,0,0,9-3L207.69,286a7.56,7.56,0,0,1-4.63,1.54Zm23.08-21.9c-8.66,0-12.72,4.11-14.1,13.43a27,27,0,0,0-.23,3.27c0,6.38,3.26,10.22,10.45,10.22,5.58,0,9.75-2.32,12-6.58L229.45,284a7.1,7.1,0,0,1-6.48,3.5c-3.5,0-4.92-.94-4.92-4.07a4.42,4.42,0,0,1,.15-1.51h17.07c.24-2.41.52-4.12.52-5.53,0-4.73-1.79-10.79-9.65-10.79Zm3.27,11.5H219c1-2.42,2.79-6.15,6.39-6.15,2.79,0,4.16,1.63,4.16,4.42a7.58,7.58,0,0,1-.14,1.73Zm23.79-11.5c-2.27,0-4.4,1.3-6.52,3.33l-.38-1.49h-5.2L237.45,294h6.34l2.79-20.56a11,11,0,0,1,5.35-1.84,25.53,25.53,0,0,1,3.26,0l.81-5.48a15,15,0,0,0-2.8-.47ZM92.54,238.81c-14.32-6.19-27.72-21.92-27.75-38,0-17.55,11.08-32.45,24.92-42.24-1.67,6.28-2.58,12,1.54,17.65a16.7,16.7,0,0,0,16.88,6.38c14.8-3.23,15.48-19.51,6.7-29s-17.07-20-13.76-33.61a35,35,0,0,1,11.15-17.78c-4.08,10.72,7.51,21.29,15.15,26.56,13.25,9.14,27.79,16,40,26.76,12.82,11.25,22.29,26.48,20.37,44.13-2.07,19.14-17.27,32.45-34.33,39.17,36-8,73.28-35.93,74.05-75.9.63-32.89-21.93-58.2-49.88-72.69l-1.46-.79a11.82,11.82,0,0,1,1,4.86,17.23,17.23,0,0,0,.47-3.23A15.77,15.77,0,0,1,177,95l0-.67A16.51,16.51,0,0,1,175,99.24l.41-.44c-5.58,9.24-20.67,11.25-28.13,1.68-12-15.4.25-32,2-48.32C151.41,31.72,138.59,11.88,122.69,0c8.76,14.16-2.77,32.9-12,43.37C101.74,53.52,90.86,62,81,71.23c-10.61,9.9-20.81,20.34-29.53,32C34,126.48,23.33,155.75,31.18,184.79s33,47.49,61.36,54Z"/></g></g></g></svg>