<?xml version="1.0" encoding="UTF-8"?>
<svg xmlns="http://www.w3.org/2000/svg" xmlns:xlink="http://www.w3.org/1999/xlink" width="50pt" height="50pt" viewBox="0 0 50 50" version="1.1">
<defs>
<filter id="alpha" filterUnits="objectBoundingBox" x="0%" y="0%" width="100%" height="100%">
  <feColorMatrix type="matrix" in="SourceGraphic" values="0 0 0 0 1 0 0 0 0 1 0 0 0 0 1 0 0 0 1 0"/>
</filter>
<mask id="mask0">
  <g filter="url(#alpha)">
<rect x="0" y="0" width="50" height="50" style="fill:rgb(0%,0%,0%);fill-opacity:0.301961;stroke:none;"/>
  </g>
</mask>
<clipPath id="clip1">
  <rect x="0" y="0" width="50" height="50"/>
</clipPath>
<g id="surface5" clip-path="url(#clip1)">
<path style=" stroke:none;fill-rule:nonzero;fill:rgb(20%,20%,20%);fill-opacity:1;" d="M 31.335938 40.625 C 31.726562 41.1875 31.964844 41.148438 32.269531 41.015625 C 32.570312 40.882812 48.199219 35.609375 48.675781 35.4375 C 49.152344 35.265625 49 35.113281 48.851562 34.875 C 48.695312 34.636719 43.492188 27.558594 43.226562 27.148438 C 42.96875 26.738281 42.835938 26.824219 42.425781 26.953125 L 25.863281 31.265625 C 25.863281 31.265625 30.941406 40.054688 31.332031 40.625 Z M 31.335938 40.625 "/>
<path style=" stroke:none;fill-rule:nonzero;fill:rgb(20%,20%,20%);fill-opacity:1;" d="M 50 33.421875 L 50 25.140625 L 44.851562 26.507812 C 46.25 28.386719 48.445312 31.324219 50 33.417969 Z M 50 33.421875 "/>
<path style=" stroke:none;fill-rule:nonzero;fill:rgb(20%,20%,20%);fill-opacity:1;" d="M 44.835938 16.3125 C 44.578125 16.371094 38.925781 17.390625 38.585938 17.4375 C 38.242188 17.484375 38.351562 17.679688 38.492188 17.878906 L 43.464844 24.703125 C 43.464844 24.703125 49.546875 23.195312 49.910156 23.113281 L 50 23.09375 L 50 22.1875 C 48.890625 20.785156 45.882812 16.96875 45.621094 16.617188 C 45.304688 16.183594 45.085938 16.253906 44.839844 16.3125 Z M 44.835938 16.3125 "/>
<path style=" stroke:none;fill-rule:nonzero;fill:rgb(20%,20%,20%);fill-opacity:1;" d="M 9.269531 5.59375 C 10.492188 5.539062 10.601562 5.816406 11.140625 6.613281 L 24.652344 29.199219 L 41.644531 25.128906 C 40.703125 23.796875 36.429688 17.738281 36.015625 17.160156 C 35.554688 16.507812 36.03125 16.210938 36.78125 16.078125 C 37.535156 15.953125 44.035156 14.859375 44.59375 14.78125 C 45.15625 14.699219 45.59375 14.5 46.5 15.59375 C 46.960938 16.152344 48.53125 18.109375 50.015625 19.9375 L 50.015625 9.375 C 50.050781 6.882812 49.054688 4.484375 47.261719 2.75 C 45.527344 0.953125 43.121094 -0.0429688 40.625 0 L 9.375 0 C 6.882812 -0.0390625 4.484375 0.957031 2.75 2.75 C 1.742188 3.738281 0.972656 4.945312 0.503906 6.273438 C 3.5625 6.023438 8.414062 5.632812 9.269531 5.59375 Z M 9.269531 5.59375 "/>
<path style=" stroke:none;fill-rule:nonzero;fill:rgb(20%,20%,20%);fill-opacity:1;" d="M 32.867188 43.664062 C 31.433594 44.101562 30.792969 44.3125 29.859375 43.011719 C 29.160156 42.035156 25.382812 35.230469 23.527344 31.878906 C 20.011719 32.796875 13.605469 34.472656 11.753906 34.914062 C 9.949219 35.351562 9.179688 34.265625 8.882812 33.59375 C 8.671875 33.128906 3.375 21.710938 0 14.382812 L 0 40.625 C -0.0390625 43.117188 0.957031 45.515625 2.75 47.25 C 4.484375 49.042969 6.882812 50.039062 9.375 50 L 40.625 50 C 45.800781 49.992188 49.992188 45.800781 50 40.625 L 50 37.542969 C 46.164062 38.945312 33.835938 43.375 32.867188 43.664062 Z M 32.867188 43.664062 "/>
<path style=" stroke:none;fill-rule:nonzero;fill:rgb(20%,20%,20%);fill-opacity:1;" d="M 11.796875 32.28125 C 12.304688 32.164062 21.820312 29.890625 22.023438 29.84375 C 22.226562 29.804688 22.355469 29.6875 22.140625 29.308594 L 9.460938 7.421875 C 9.34375 7.226562 9.375 7.15625 9.070312 7.171875 C 8.789062 7.1875 1.734375 7.8125 0.0976562 7.953125 C 0.0507812 8.289062 0.0234375 8.636719 0 8.984375 C 1.65625 12.375 11.171875 31.996094 11.226562 32.15625 C 11.28125 32.316406 11.28125 32.390625 11.789062 32.273438 Z M 11.796875 32.28125 "/>
</g>
</defs>
<g id="surface1">
<use xlink:href="#surface5" mask="url(#mask0)"/>
</g>
</svg>
